<svg xmlns="http://www.w3.org/2000/svg" version="1.1" xmlns:xlink="http://www.w3.org/1999/xlink" xmlns:svgjs="http://svgjs.com/svgjs" width="512" height="512" x="0" y="0" viewBox="0 0 24 24" style="enable-background:new 0 0 512 512" xml:space="preserve" class=""><g><path d="M19 2H5a3 3 0 0 0-3 3v14a3 3 0 0 0 3 3h14a3 3 0 0 0 3-3V5a3 3 0 0 0-3-3zm1 17a1 1 0 0 1-1 1H5a1 1 0 0 1-1-1V5a1 1 0 0 1 1-1h14a1 1 0 0 1 1 1zM17.67 7.28a1 1 0 0 1 0 1.41l-7.46 7.94a1 1 0 0 1-.73.31 1 1 0 0 1-.73-.31L6.31 14a1 1 0 1 1 1.45-1.37l1.76 1.87 6.73-7.16a1 1 0 0 1 1.42-.06z" data-name="Layer 46" fill="currentColor" data-original="#000000" class=""></path></g></svg>